<svg width="1280" height="159" viewBox="0 0 1280 159" fill="none" xmlns="http://www.w3.org/2000/svg">
<path d="M1280 159V35.5002C1280 35.5002 981 -12.4998 655 117C581.118 146.349 507.083 158.209 436.757 159H1280Z" fill="white"/>
<path d="M421.527 159H0V18L9.25064e-05 35.5002C9.25064e-05 35.5002 188.505 156.396 421.527 159Z" fill="white"/>
<g opacity="0.15">
<path d="M1280 159V19.7343C1280 19.7343 981 -34.3934 655 111.639C581.118 144.734 507.083 158.108 436.757 159H1280Z" fill="white"/>
<path d="M421.527 159H0V0L9.25064e-05 19.7343C9.25064e-05 19.7343 188.505 156.063 421.527 159Z" fill="white"/>
</g>
</svg>
