<svg width="140" height="22" viewBox="0 0 140 22" fill="none" xmlns="http://www.w3.org/2000/svg">
<path d="M5.64 0.0899992H0.93C0.78 0.0899992 0.69 0.209999 0.69 0.359999V20.76C0.69 20.91 0.78 21 0.93 21H5.64C5.76 21 5.88 20.91 5.88 20.76V0.359999C5.88 0.209999 5.76 0.0899992 5.64 0.0899992ZM28.0418 10.83C27.8618 10.23 27.6218 9.66 27.2918 9.12L27.1418 8.85C27.1118 8.79 27.0518 8.73 27.0218 8.67L26.9318 8.52C26.9018 8.46 26.8418 8.4 26.7818 8.31C26.7218 8.22 26.6618 8.13 26.6018 8.07L26.5418 8.01C26.4818 7.92 26.4218 7.86 26.3618 7.8L26.3318 7.74L26.2418 7.83L26.3018 7.74C26.2118 7.62 26.1218 7.53 26.0318 7.41L25.9718 7.35C25.9118 7.29 25.8518 7.23 25.7618 7.17V7.14C25.6718 7.08 25.5818 6.99 25.4918 6.9L25.4318 6.87C25.3118 6.75 25.1918 6.66 25.0718 6.57C25.0418 6.57 25.0118 6.54 24.9818 6.51C24.8318 6.39 24.7118 6.3 24.5618 6.21H24.5318C24.3818 6.12 24.1718 5.97 24.0218 5.91C23.9918 5.88 23.9318 5.85 23.9018 5.82L23.8418 5.94L23.9018 5.82H23.8718C23.8118 5.79 23.7518 5.76 23.6618 5.7H23.6318C23.4818 5.64 23.3318 5.55 23.2118 5.49H23.1518C23.0618 5.46 23.0018 5.43 22.8818 5.4C22.8518 5.37 22.8218 5.37 22.7918 5.34C22.7018 5.31 22.5818 5.28 22.4918 5.25H22.4618C22.3418 5.22 22.2218 5.16 22.1018 5.13L22.0118 5.1C21.7718 5.04 21.5318 5.01 21.2918 4.98L21.1718 4.95C20.9318 4.92 20.6618 4.89 20.4218 4.86H20.3318C20.1818 4.86 20.0618 4.86 19.9418 4.86C19.8218 4.86 19.7018 4.86 19.5518 4.86C19.5218 4.86 19.4918 4.86 19.4618 4.89H19.4318C19.3418 4.89 19.2518 4.89 19.1618 4.89H19.1318C19.1018 4.89 19.0718 4.92 19.0418 4.92C18.8918 4.92 18.7718 4.95 18.6518 4.95H18.6218C18.5318 4.98 18.3518 5.01 18.2318 5.04H18.1718C18.0818 5.07 17.9918 5.07 17.9018 5.1H17.8718C17.8418 5.13 17.8118 5.13 17.7818 5.13C17.6618 5.16 17.5418 5.19 17.4218 5.22C17.3018 5.28 17.1818 5.31 17.0618 5.34C17.0618 5.37 17.0318 5.37 17.0018 5.37L16.9718 5.4C16.8818 5.43 16.7918 5.46 16.7318 5.49H16.7018C16.6718 5.52 16.6418 5.52 16.6118 5.52C16.4918 5.58 16.4018 5.64 16.2818 5.67C16.1618 5.73 16.0718 5.79 15.9518 5.85C15.9218 5.85 15.8918 5.88 15.8618 5.88V5.91C15.7718 5.94 15.7118 6 15.6218 6.03L15.5318 6.09C15.4118 6.15 15.3218 6.21 15.2318 6.27C14.2118 6.96 13.3418 7.86 12.7118 8.88C12.6518 8.97 12.5918 9.09 12.5318 9.18L12.4718 9.33C12.4418 9.33 12.4418 9.36 12.4118 9.39C12.4118 9.42 12.3818 9.45 12.3818 9.48L12.3518 9.54C12.3518 9.57 12.3218 9.6 12.3218 9.6C12.2618 9.72 12.2018 9.84 12.1718 9.96C12.0818 10.14 11.9918 10.35 11.9318 10.59C11.6918 11.28 11.5418 12.03 11.5118 12.75C11.5118 12.9 11.5118 13.05 11.5118 13.2C11.5118 13.32 11.5118 13.47 11.5118 13.62C11.5418 14.04 11.5718 14.46 11.6618 14.85C11.6918 15 11.7218 15.15 11.7518 15.27C11.8118 15.42 11.8418 15.6 11.9318 15.78C12.0518 16.14 12.1718 16.5 12.3518 16.83C12.3518 16.86 12.3818 16.86 12.3818 16.89L12.4118 16.95C12.4418 17.04 12.5018 17.13 12.5318 17.19L12.5618 17.25C12.6218 17.34 12.6518 17.43 12.7118 17.49C13.3418 18.54 14.2118 19.41 15.2318 20.1C15.3218 20.16 15.4118 20.22 15.5318 20.28L15.6218 20.34C15.7118 20.4 15.7718 20.43 15.8618 20.46V20.49C15.8918 20.49 15.9218 20.52 15.9518 20.52C16.0718 20.58 16.1618 20.64 16.2818 20.7C16.4018 20.73 16.4918 20.79 16.6118 20.85C16.6418 20.85 16.6718 20.85 16.7018 20.88H16.7318C16.7918 20.91 16.8818 20.94 16.9718 20.97L17.0018 21C17.0318 21 17.0618 21 17.0618 21.03C17.1818 21.06 17.3018 21.09 17.4218 21.15C17.5418 21.18 17.6618 21.21 17.7818 21.24C17.8118 21.24 17.8418 21.24 17.8718 21.27H17.9018C17.9918 21.3 18.0818 21.3 18.1718 21.33L18.2918 21.36C18.3818 21.36 18.4718 21.39 18.5918 21.42H18.6518C18.7718 21.45 18.8918 21.45 19.0418 21.45C19.0718 21.48 19.1018 21.48 19.1318 21.48H19.1618C19.2518 21.48 19.3418 21.48 19.4318 21.51H19.4618C19.4918 21.51 19.5218 21.51 19.5518 21.51C19.7018 21.51 19.8218 21.51 19.9418 21.51C20.0618 21.51 20.1818 21.51 20.3318 21.51H20.4218C20.6618 21.48 20.9318 21.45 21.1718 21.42H21.2618C21.5318 21.36 21.7718 21.33 22.0118 21.27L22.1018 21.24C22.2218 21.21 22.3418 21.18 22.4618 21.12H22.4918C22.5818 21.09 22.7018 21.06 22.7918 21.03L22.9118 20.97C23.0018 20.94 23.0618 20.91 23.1818 20.88H23.2118C23.3318 20.82 23.4818 20.76 23.6318 20.67H23.6618C23.7518 20.61 23.8118 20.58 23.8718 20.55H23.9018C23.9318 20.52 23.9918 20.49 24.0218 20.49L24.0518 20.46C24.2318 20.37 24.3818 20.28 24.5318 20.16L24.5918 20.13C24.7118 20.04 24.8618 19.95 24.9818 19.86L25.0718 19.8C25.1918 19.71 25.3118 19.62 25.4318 19.53L25.3418 19.41L25.4318 19.5L25.5218 19.44C25.6118 19.38 25.6718 19.29 25.7618 19.23V19.2C25.8518 19.14 25.9118 19.08 25.9718 19.02L26.0318 18.96C26.1218 18.84 26.2118 18.75 26.3318 18.63L26.3618 18.57C26.4218 18.51 26.4818 18.45 26.5418 18.36L26.6018 18.3C26.6318 18.27 26.6618 18.24 26.6918 18.21L26.7518 18.12C26.8418 18 26.9318 17.88 27.0218 17.73C27.1118 17.61 27.1718 17.49 27.2318 17.37L27.2918 17.25C27.3818 17.13 27.5018 16.89 27.5918 16.68C27.6518 16.53 27.5618 16.35 27.4118 16.32L23.1518 15.57C23.0318 15.54 22.9418 15.6 22.8818 15.66C22.1318 16.65 21.0518 17.16 19.9118 17.16C18.5618 17.16 17.3318 16.41 16.6418 15.27C16.5518 15.09 16.6718 14.88 16.8518 14.88H27.9818C28.1318 14.88 28.2218 14.79 28.2518 14.67C28.3418 14.19 28.3718 13.65 28.3718 13.2C28.3718 12.39 28.2818 11.61 28.0418 10.83ZM23.1518 11.37H17.0918C16.9418 11.37 16.8218 11.22 16.8518 11.07C17.0618 9.9 18.5618 9 20.1218 9C21.8618 9 23.2118 9.9 23.4218 11.07C23.4218 11.22 23.3018 11.37 23.1518 11.37ZM50.9705 5.1H46.5005C46.3805 5.1 46.2605 5.22 46.2605 5.37V5.85C46.2605 5.94 46.1405 6 46.0805 5.94C44.7905 5.22 43.3505 4.86 41.8805 4.86C37.2305 4.86 33.4505 8.58 33.4505 13.17C33.4505 17.76 37.2305 21.51 41.8805 21.51C43.3505 21.51 44.7905 21.12 46.0805 20.4C46.1405 20.37 46.2605 20.43 46.2605 20.52V20.76C46.2605 20.88 46.3805 21 46.5005 21H50.9705C51.0905 21 51.2105 20.88 51.2105 20.76V5.37C51.2105 5.22 51.0905 5.1 50.9705 5.1ZM42.6305 17.01C40.5005 17.01 38.7605 15.3 38.7605 13.17C38.7605 11.07 40.5005 9.36 42.6305 9.36C44.7905 9.36 46.2605 11.07 46.2605 13.17C46.2605 15.3 44.7905 17.01 42.6305 17.01ZM66.394 11.91C66.034 11.76 65.674 11.61 65.314 11.49C65.014 11.37 64.714 11.25 64.414 11.13C62.794 10.47 62.524 10.02 62.434 9.72C62.374 9.54 62.434 9.33 62.614 9.15C62.824 8.91 63.154 8.79 63.544 8.82C64.114 8.91 64.384 9.21 64.504 9.51C64.534 9.6 64.654 9.69 64.774 9.66L69.064 8.79C69.214 8.76 69.304 8.64 69.274 8.49C69.034 7.41 68.344 6.72 68.104 6.51C67.774 6.24 67.414 5.97 66.994 5.76C66.154 5.34 65.194 5.04 64.144 4.92C62.374 4.71 60.664 5.07 59.344 5.91C58.894 6.18 58.504 6.51 58.174 6.9C57.934 7.17 56.824 8.64 57.154 10.38C57.364 11.61 58.264 12.66 59.764 13.53C59.824 13.56 59.854 13.56 59.884 13.59L59.914 13.62C60.214 13.77 60.514 13.92 60.844 14.07C61.324 14.28 61.744 14.49 62.074 14.64L62.104 14.67C63.784 15.45 64.114 15.72 64.174 16.26C64.204 16.5 64.114 16.74 63.964 16.92C63.784 17.07 63.424 17.25 62.764 17.16C62.494 17.13 61.954 16.92 61.654 16.47C61.594 16.38 61.504 16.32 61.384 16.35L57.034 17.28C56.884 17.31 56.794 17.49 56.854 17.64C57.334 18.72 58.024 19.59 58.954 20.22C59.854 20.73 60.904 21.06 62.134 21.21C62.524 21.24 62.914 21.27 63.304 21.27C66.034 21.27 68.224 20.07 69.184 18.03C69.424 17.43 69.574 16.83 69.604 16.26C69.754 13.77 67.414 12.39 66.394 11.91ZM91.2797 10.83C91.0997 10.23 90.8597 9.66 90.5297 9.12L90.3797 8.85C90.3497 8.79 90.2897 8.73 90.2597 8.67L90.1697 8.52C90.1397 8.46 90.0797 8.4 90.0197 8.31C89.9597 8.22 89.8997 8.13 89.8397 8.07L89.7797 8.01C89.7197 7.92 89.6597 7.86 89.5997 7.8L89.5697 7.74L89.4797 7.83L89.5397 7.74C89.4497 7.62 89.3597 7.53 89.2697 7.41L89.2097 7.35C89.1497 7.29 89.0897 7.23 88.9997 7.17V7.14C88.9097 7.08 88.8197 6.99 88.7297 6.9L88.6697 6.87C88.5497 6.75 88.4297 6.66 88.3097 6.57C88.2797 6.57 88.2497 6.54 88.2197 6.51C88.0697 6.39 87.9497 6.3 87.7997 6.21H87.7697C87.6197 6.12 87.4097 5.97 87.2597 5.91C87.2297 5.88 87.1697 5.85 87.1397 5.82L87.0797 5.94L87.1397 5.82H87.1097C87.0497 5.79 86.9897 5.76 86.8997 5.7H86.8697C86.7197 5.64 86.5697 5.55 86.4497 5.49H86.3897C86.2997 5.46 86.2397 5.43 86.1197 5.4C86.0897 5.37 86.0597 5.37 86.0297 5.34C85.9397 5.31 85.8197 5.28 85.7297 5.25H85.6997C85.5797 5.22 85.4597 5.16 85.3397 5.13L85.2497 5.1C85.0097 5.04 84.7697 5.01 84.5297 4.98L84.4097 4.95C84.1697 4.92 83.8997 4.89 83.6597 4.86H83.5697C83.4197 4.86 83.2997 4.86 83.1797 4.86C83.0597 4.86 82.9397 4.86 82.7897 4.86C82.7597 4.86 82.7297 4.86 82.6997 4.89H82.6697C82.5797 4.89 82.4897 4.89 82.3997 4.89H82.3697C82.3397 4.89 82.3097 4.92 82.2797 4.92C82.1297 4.92 82.0097 4.95 81.8897 4.95H81.8597C81.7697 4.98 81.5897 5.01 81.4697 5.04H81.4097C81.3197 5.07 81.2297 5.07 81.1397 5.1H81.1097C81.0797 5.13 81.0497 5.13 81.0197 5.13C80.8997 5.16 80.7797 5.19 80.6597 5.22C80.5397 5.28 80.4197 5.31 80.2997 5.34C80.2997 5.37 80.2697 5.37 80.2397 5.37L80.2097 5.4C80.1197 5.43 80.0297 5.46 79.9697 5.49H79.9397C79.9097 5.52 79.8797 5.52 79.8497 5.52C79.7297 5.58 79.6397 5.64 79.5197 5.67C79.3997 5.73 79.3097 5.79 79.1897 5.85C79.1597 5.85 79.1297 5.88 79.0997 5.88V5.91C79.0097 5.94 78.9497 6 78.8597 6.03L78.7697 6.09C78.6497 6.15 78.5597 6.21 78.4697 6.27C77.4497 6.96 76.5797 7.86 75.9497 8.88C75.8897 8.97 75.8297 9.09 75.7697 9.18L75.7097 9.33C75.6797 9.33 75.6797 9.36 75.6497 9.39C75.6497 9.42 75.6197 9.45 75.6197 9.48L75.5897 9.54C75.5897 9.57 75.5597 9.6 75.5597 9.6C75.4997 9.72 75.4397 9.84 75.4097 9.96C75.3197 10.14 75.2297 10.35 75.1697 10.59C74.9297 11.28 74.7797 12.03 74.7497 12.75C74.7497 12.9 74.7497 13.05 74.7497 13.2C74.7497 13.32 74.7497 13.47 74.7497 13.62C74.7797 14.04 74.8097 14.46 74.8997 14.85C74.9297 15 74.9597 15.15 74.9897 15.27C75.0497 15.42 75.0797 15.6 75.1697 15.78C75.2897 16.14 75.4097 16.5 75.5897 16.83C75.5897 16.86 75.6197 16.86 75.6197 16.89L75.6497 16.95C75.6797 17.04 75.7397 17.13 75.7697 17.19L75.7997 17.25C75.8597 17.34 75.8897 17.43 75.9497 17.49C76.5797 18.54 77.4497 19.41 78.4697 20.1C78.5597 20.16 78.6497 20.22 78.7697 20.28L78.8597 20.34C78.9497 20.4 79.0097 20.43 79.0997 20.46V20.49C79.1297 20.49 79.1597 20.52 79.1897 20.52C79.3097 20.58 79.3997 20.64 79.5197 20.7C79.6397 20.73 79.7297 20.79 79.8497 20.85C79.8797 20.85 79.9097 20.85 79.9397 20.88H79.9697C80.0297 20.91 80.1197 20.94 80.2097 20.97L80.2397 21C80.2697 21 80.2997 21 80.2997 21.03C80.4197 21.06 80.5397 21.09 80.6597 21.15C80.7797 21.18 80.8997 21.21 81.0197 21.24C81.0497 21.24 81.0797 21.24 81.1097 21.27H81.1397C81.2297 21.3 81.3197 21.3 81.4097 21.33L81.5297 21.36C81.6197 21.36 81.7097 21.39 81.8297 21.42H81.8897C82.0097 21.45 82.1297 21.45 82.2797 21.45C82.3097 21.48 82.3397 21.48 82.3697 21.48H82.3997C82.4897 21.48 82.5797 21.48 82.6697 21.51H82.6997C82.7297 21.51 82.7597 21.51 82.7897 21.51C82.9397 21.51 83.0597 21.51 83.1797 21.51C83.2997 21.51 83.4197 21.51 83.5697 21.51H83.6597C83.8997 21.48 84.1697 21.45 84.4097 21.42H84.4997C84.7697 21.36 85.0097 21.33 85.2497 21.27L85.3397 21.24C85.4597 21.21 85.5797 21.18 85.6997 21.12H85.7297C85.8197 21.09 85.9397 21.06 86.0297 21.03L86.1497 20.97C86.2397 20.94 86.2997 20.91 86.4197 20.88H86.4497C86.5697 20.82 86.7197 20.76 86.8697 20.67H86.8997C86.9897 20.61 87.0497 20.58 87.1097 20.55H87.1397C87.1697 20.52 87.2297 20.49 87.2597 20.49L87.2897 20.46C87.4697 20.37 87.6197 20.28 87.7697 20.16L87.8297 20.13C87.9497 20.04 88.0997 19.95 88.2197 19.86L88.3097 19.8C88.4297 19.71 88.5497 19.62 88.6697 19.53L88.5797 19.41L88.6697 19.5L88.7597 19.44C88.8497 19.38 88.9097 19.29 88.9997 19.23V19.2C89.0897 19.14 89.1497 19.08 89.2097 19.02L89.2697 18.96C89.3597 18.84 89.4497 18.75 89.5697 18.63L89.5997 18.57C89.6597 18.51 89.7197 18.45 89.7797 18.36L89.8397 18.3C89.8697 18.27 89.8997 18.24 89.9297 18.21L89.9897 18.12C90.0797 18 90.1697 17.88 90.2597 17.73C90.3497 17.61 90.4097 17.49 90.4697 17.37L90.5297 17.25C90.6197 17.13 90.7397 16.89 90.8297 16.68C90.8897 16.53 90.7997 16.35 90.6497 16.32L86.3897 15.57C86.2697 15.54 86.1797 15.6 86.1197 15.66C85.3697 16.65 84.2897 17.16 83.1497 17.16C81.7997 17.16 80.5697 16.41 79.8797 15.27C79.7897 15.09 79.9097 14.88 80.0897 14.88H91.2197C91.3697 14.88 91.4597 14.79 91.4897 14.67C91.5797 14.19 91.6097 13.65 91.6097 13.2C91.6097 12.39 91.5197 11.61 91.2797 10.83ZM86.3897 11.37H80.3297C80.1797 11.37 80.0597 11.22 80.0897 11.07C80.2997 9.9 81.7997 9 83.3597 9C85.0997 9 86.4497 9.9 86.6597 11.07C86.6597 11.22 86.5397 11.37 86.3897 11.37ZM102.208 0.0899992H97.4984C97.3484 0.0899992 97.2584 0.209999 97.2584 0.359999V20.76C97.2584 20.91 97.3484 21 97.4984 21H102.208C102.328 21 102.448 20.91 102.448 20.76V0.359999C102.448 0.209999 102.328 0.0899992 102.208 0.0899992ZM139.259 16.89H138.389C137.909 16.89 137.579 16.77 137.339 16.53C136.949 16.14 136.979 15.48 136.979 15V14.88C136.979 14.85 136.979 10.95 137.009 9.63C137.009 9.48 137.099 9.36 137.249 9.36H138.899C139.049 9.36 139.139 9.24 139.139 9.12V5.34C139.139 5.22 139.049 5.1 138.899 5.1H137.249C137.099 5.1 137.009 4.98 137.009 4.83V0.48C137.009 0.33 136.889 0.239999 136.739 0.239999H132.299C132.149 0.239999 132.029 0.33 132.029 0.48V4.83C132.029 4.98 131.939 5.1 131.789 5.1H130.139C129.989 5.1 129.899 5.22 129.899 5.34V9.12C129.899 9.24 129.989 9.36 130.139 9.36H131.789C131.939 9.36 132.029 9.48 132.029 9.63V17.25C132.029 19.74 133.469 21.12 136.169 21.27C136.199 21.27 136.229 21.27 136.259 21.27C136.709 21.27 138.149 21.18 138.689 21.15C138.809 21.15 138.929 21.06 138.929 20.94L139.499 17.16C139.529 17.01 139.409 16.89 139.259 16.89Z" fill="#203C57"/>
<path d="M116.51 4.86C111.86 4.86 108.08 8.61 108.08 13.2C108.08 17.79 111.86 21.51 116.51 21.51C121.16 21.51 124.94 17.79 124.94 13.2C124.94 8.61 121.16 4.86 116.51 4.86ZM116.51 16.83C114.47 16.83 112.82 15.18 112.82 13.2C112.82 11.19 114.47 9.57 116.51 9.57C118.55 9.57 120.2 11.19 120.2 13.2C120.2 15.18 118.55 16.83 116.51 16.83Z" fill="#F5C343"/>
<circle cx="116.5" cy="12.5" r="4.5" fill="#F5C343"/>
<path d="M115.606 14.0685L114.548 14.1784C114.427 14.1911 114.309 14.1692 114.205 14.1177L114.172 14.0992C114.081 14.0474 114.004 13.9733 113.948 13.8813C113.885 13.7785 113.854 13.6632 113.856 13.5465C113.857 13.429 113.891 13.3143 113.956 13.2139L116.501 9.28691C116.578 9.16935 116.687 9.08408 116.811 9.03818C116.934 8.99261 117.071 8.98681 117.205 9.02631C117.34 9.06649 117.453 9.1467 117.532 9.25206C117.611 9.35829 117.657 9.48898 117.657 9.62859V11.9316L118.715 11.8216C118.836 11.809 118.954 11.8309 119.057 11.8824L119.091 11.9009C119.182 11.9527 119.259 12.0268 119.315 12.1187C119.378 12.2218 119.409 12.337 119.407 12.4536C119.406 12.5711 119.372 12.6857 119.307 12.7862L116.761 16.7131C116.685 16.8308 116.576 16.916 116.452 16.9619C116.329 17.0073 116.192 17.0132 116.058 16.9737C115.922 16.9337 115.81 16.8535 115.731 16.748C115.651 16.6418 115.606 16.5112 115.606 16.3715L115.606 14.0685ZM114.83 13.3416L115.937 13.2265C115.96 13.2223 115.984 13.2201 116.009 13.2201C116.231 13.2201 116.411 13.4005 116.411 13.6228V15.7771L118.432 12.6584L117.326 12.7734C117.302 12.7777 117.278 12.7799 117.254 12.7799C117.031 12.7799 116.851 12.5995 116.851 12.3772V10.2229L114.83 13.3416Z" fill="white"/>
</svg>
